[Header]
FileType HTR
DataType HTRS
FileVersion 1
NumSegments 64
NumFrames 3
DataFrameRate 24
EulerRotationOrder ZYX
CalibrationUnits mm
RotationUnits Degrees
GlobalAxisofGravity Y
BoneLengthAxis Y
ScaleFactor 1.0
[SegmentNames&Hierarchy]
Hips	GLOBAL
Spine	Hips
Spine1	Spine
Spine2	Spine1
Neck	Spine2
Head	Neck
LeftEye	Head
RightEye	Head
LeftShoulder	Spine2
LeftArm	LeftShoulder
LeftForeArm	LeftArm
LeftHand	LeftForeArm
LeftHandThumb1	LeftHand
LeftHandThumb2	LeftHandThumb1
LeftHandThumb3	LeftHandThumb2
LeftHandThumb4	LeftHandThumb3
LeftHandIndex1	LeftHand
LeftHandIndex2	LeftHandIndex1
LeftHandIndex3	LeftHandIndex2
LeftHandIndex4	LeftHandIndex3
LeftHandMiddle1	LeftHand
LeftHandMiddle2	LeftHandMiddle1
LeftHandMiddle3	LeftHandMiddle2
LeftHandMiddle4	LeftHandMiddle3
LeftHandRing1	LeftHand
LeftHandRing2	LeftHandRing1
LeftHandRing3	LeftHandRing2
LeftHandRing4	LeftHandRing3
LeftHandPinky1	LeftHand
LeftHandPinky2	LeftHandPinky1
LeftHandPinky3	LeftHandPinky2
LeftHandPinky4	LeftHandPinky3
RightShoulder	Spine2
RightArm	RightShoulder
RightForeArm	RightArm
RightHand	RightForeArm
RightHandPinky1	RightHand
RightHandPinky2	RightHandPinky1
RightHandPinky3	RightHandPinky2
RightHandPinky4	RightHandPinky3
RightHandRing1	RightHand
RightHandRing2	RightHandRing1
RightHandRing3	RightHandRing2
RightHandRing4	RightHandRing3
RightHandMiddle1	RightHand
RightHandMiddle2	RightHandMiddle1
RightHandMiddle3	RightHandMiddle2
RightHandMiddle4	RightHandMiddle3
RightHandIndex1	RightHand
RightHandIndex2	RightHandIndex1
RightHandIndex3	RightHandIndex2
RightHandIndex4	RightHandIndex3
RightHandThumb1	RightHand
RightHandThumb2	RightHandThumb1
RightHandThumb3	RightHandThumb2
RightHandThumb4	RightHandThumb3
LeftUpLeg	Hips
LeftLeg	LeftUpLeg
LeftFoot	LeftLeg
LeftToeBase	LeftFoot
RightUpLeg	Hips
RightLeg	RightUpLeg
RightFoot	RightLeg
RightToeBase	RightFoot
[BasePosition]
Hips	0	0	0	0	0	0	1
Spine	0	0	0	0	0	0	1
Spine1	0	0	0	0	0	0	1
Spine2	0	0	0	0	0	0	1
Neck	0	0	0	0	0	0	1
Head	0	0	0	0	0	0	1
LeftEye	0	0	0	0	0	0	1
RightEye	0	0	0	0	0	0	1
LeftShoulder	0	0	0	0	0	0	1
LeftArm	0	0	0	0	0	0	1
LeftForeArm	0	0	0	0	0	0	1
LeftHand	0	0	0	0	0	0	1
LeftHandThumb1	0	0	0	0	0	0	1
LeftHandThumb2	0	0	0	0	0	0	1
LeftHandThumb3	0	0	0	0	0	0	1
LeftHandThumb4	0	0	0	0	0	0	1
LeftHandIndex1	0	0	0	0	0	0	1
LeftHandIndex2	0	0	0	0	0	0	1
LeftHandIndex3	0	0	0	0	0	0	1
LeftHandIndex4	0	0	0	0	0	0	1
LeftHandMiddle1	0	0	0	0	0	0	1
LeftHandMiddle2	0	0	0	0	0	0	1
LeftHandMiddle3	0	0	0	0	0	0	1
LeftHandMiddle4	0	0	0	0	0	0	1
LeftHandRing1	0	0	0	0	0	0	1
LeftHandRing2	0	0	0	0	0	0	1
LeftHandRing3	0	0	0	0	0	0	1
LeftHandRing4	0	0	0	0	0	0	1
LeftHandPinky1	0	0	0	0	0	0	1
LeftHandPinky2	0	0	0	0	0	0	1
LeftHandPinky3	0	0	0	0	0	0	1
LeftHandPinky4	0	0	0	0	0	0	1
RightShoulder	0	0	0	0	0	0	1
RightArm	0	0	0	0	0	0	1
RightForeArm	0	0	0	0	0	0	1
RightHand	0	0	0	0	0	0	1
RightHandPinky1	0	0	0	0	0	0	1
RightHandPinky2	0	0	0	0	0	0	1
RightHandPinky3	0	0	0	0	0	0	1
RightHandPinky4	0	0	0	0	0	0	1
RightHandRing1	0	0	0	0	0	0	1
RightHandRing2	0	0	0	0	0	0	1
RightHandRing3	0	0	0	0	0	0	1
RightHandRing4	0	0	0	0	0	0	1
RightHandMiddle1	0	0	0	0	0	0	1
RightHandMiddle2	0	0	0	0	0	0	1
RightHandMiddle3	0	0	0	0	0	0	1
RightHandMiddle4	0	0	0	0	0	0	1
RightHandIndex1	0	0	0	0	0	0	1
RightHandIndex2	0	0	0	0	0	0	1
RightHandIndex3	0	0	0	0	0	0	1
RightHandIndex4	0	0	0	0	0	0	1
RightHandThumb1	0	0	0	0	0	0	1
RightHandThumb2	0	0	0	0	0	0	1
RightHandThumb3	0	0	0	0	0	0	1
RightHandThumb4	0	0	0	0	0	0	1
LeftUpLeg	0	0	0	0	0	0	1
LeftLeg	0	0	0	0	0	0	1
LeftFoot	0	0	0	0	0	0	1
LeftToeBase	0	0	0	0	0	0	1
RightUpLeg	0	0	0	0	0	0	1
RightLeg	0	0	0	0	0	0	1
RightFoot	0	0	0	0	0	0	1
RightToeBase	0	0	0	0	0	0	1
[Hips]
21	39.46980286	1016.890381	-123.6479874	-12.38404083	65.33712769	-12.6060915	1.0
22	44.85679245	1016.962036	-113.5112381	-14.33375263	68.46632385	-14.4059763	1.0
23	47.24509811	1016.946899	-99.46290588	-16.93634415	71.56463623	-16.86080742	1.0
[Spine]
21	0	101.8159943	1.315000057	1.29592824	-3.288808346	3.113175154	1.0
22	0	101.8159943	1.315000057	1.267880082	-3.605493069	3.153038025	1.0
23	0	101.8159943	1.315000057	1.294885874	-3.714980364	3.120840073	1.0
[Spine1]
21	0	100.8349991	-10.00800037	0.5525212884	-2.731834888	5.233973026	1.0
22	0	100.8349991	-10.00800037	0.4768159091	-2.952235937	5.622018814	1.0
23	0	100.8349991	-10.00800037	0.4520956278	-2.897218704	5.972440243	1.0
[Spine2]
21	0	91	-13.73399925	0.3404868245	-2.203558207	5.198163986	1.0
22	0	91	-13.73399925	0.2507718503	-2.410544634	5.588881016	1.0
23	0	91	-13.73399925	0.2333269417	-2.347139359	5.937494755	1.0
[Neck]
21	0	166.7169952	-25.16200066	3.098306417	7.226206303	-1.982230067	1.0
22	0	166.7169952	-25.16200066	3.126508951	6.742218971	-1.74144721	1.0
23	0	166.7169952	-25.16200066	2.965026379	5.933509827	-1.649532914	1.0
[Head]
21	0	96.17900085	16.84999847	-2.731942415	21.53663445	-15.35153866	1.0
22	0	96.17900085	16.84999847	-1.491369963	19.71102142	-13.7636776	1.0
23	0	96.17900085	16.84999847	-0.3939267695	16.9940567	-12.37438107	1.0
[LeftEye]
21	30.6760006	64.09500122	92.83599854	0	0	0	1.0
22	30.6760006	64.09500122	92.83599854	0	0	0	1.0
23	30.6760006	64.09500122	92.83599854	0	0	0	1.0
[RightEye]
21	-30.6760006	64.09500122	92.83499908	0	0	0	1.0
22	-30.6760006	64.09500122	92.83499908	0	0	0	1.0
23	-30.6760006	64.09500122	92.83499908	0	0	0	1.0
[LeftShoulder]
21	45.70400238	109.4599991	-26.28000069	4.435114861	-13.37903976	-3.887590885	1.0
22	45.70400238	109.4599991	-26.28000069	4.38238287	-13.81127167	-3.771044254	1.0
23	45.70400238	109.4599991	-26.28000069	4.404856205	-13.81178188	-3.869637728	1.0
[LeftArm]
21	105.923996	-5.24600029	-22.32099915	-1.068566799	6.896587372	-86.56613159	1.0
22	105.923996	-5.24600029	-22.32099915	-0.7376288176	6.339808941	-85.00466919	1.0
23	105.923996	-5.24600029	-22.32099915	-0.3523424268	5.633728027	-84.02252197	1.0
[LeftForeArm]
21	278.414978	-0.0009999999311	0	3.64043467e-06	-4.230590343	-0.0002059034159	1.0
22	278.414978	-0.0009999999311	0	3.035077953e-06	-6.663996696	-0.00020530443	1.0
23	278.414978	-0.0009999999311	0	-1.533479804e-06	-9.732803345	-0.000205613469	1.0
[LeftHand]
21	283.2879944	0	0	-25.04795456	3.307235956	-13.72041607	1.0
22	283.2879944	0	0	-27.09004784	3.754735708	-11.04277039	1.0
23	283.2879944	0	0	-28.77183533	4.057139397	-8.98593998	1.0
[LeftHandThumb1]
21	24.6609993	-15.75	26.8239994	19.44121552	-0.9976662397	10.17052078	1.0
22	24.6609993	-15.75	26.8239994	18.8011322	-1.842848897	10.36071301	1.0
23	24.6609993	-15.75	26.8239994	18.63194466	-2.441377401	10.34601116	1.0
[LeftHandThumb2]
21	32.29800034	-18.64699936	18.64699936	-0.4332329035	31.32534218	-3.135970116	1.0
22	32.29800034	-18.64699936	18.64699936	-0.4532057941	31.86552048	-3.093704462	1.0
23	32.29800034	-18.64699936	18.64699936	-0.4412865937	32.09800339	-2.959976196	1.0
[LeftHandThumb3]
21	26.52600098	-15.31499958	15.31499958	2.076801777	8.771350861	-0.2217702717	1.0
22	26.52600098	-15.31499958	15.31499958	2.078414679	8.949360847	0.008477442898	1.0
23	26.52600098	-15.31499958	15.31499958	2.082331181	9.097598076	0.03258319572	1.0
[LeftHandThumb4]
21	19.54599953	-11.28499985	11.28499985	0	0	0	1.0
22	19.54599953	-11.28499985	11.28499985	0	0	0	1.0
23	19.54599953	-11.28499985	11.28499985	0	0	0	1.0
[LeftHandIndex1]
21	91.09299469	-5.170999527	22.60099792	0.1380407512	4.57606411	-4.69477272	1.0
22	91.09299469	-5.170999527	22.60099792	0.03374307975	4.550795078	-5.278851986	1.0
23	91.09299469	-5.170999527	22.60099792	-0.07704550028	4.507624149	-5.837641239	1.0
[LeftHandIndex2]
21	36.76399994	0	0	-0.6311346889	2.775805712	-20.63299179	1.0
22	36.76399994	0	0	-0.6307139397	2.775027752	-20.6242218	1.0
23	36.76399994	0	0	-0.6316772699	2.776811838	-20.64422798	1.0
[LeftHandIndex3]
21	28.83100128	0	0	-0.1108138487	0.8114657998	-10.2304678	1.0
22	28.83100128	0	0	-0.1106495187	0.8105972409	-10.22167397	1.0
23	28.83100128	0	0	-0.1110118553	0.8125689626	-10.24166107	1.0
[LeftHandIndex4]
21	23.92700005	0	0	0	0	0	1.0
22	23.92700005	0	0	0	0	0	1.0
23	23.92700005	0	0	0	0	0	1.0
[LeftHandMiddle1]
21	95.33399963	0	0	-1.290801764	8.927578926	-13.9120245	1.0
22	95.33399963	0	0	-1.323688149	8.730359077	-14.20719337	1.0
23	95.33399963	0	0	-1.355842352	8.530618668	-14.49671078	1.0
[LeftHandMiddle2]
21	36.98199844	0	0	-1.414822459	3.810297251	-33.24164581	1.0
22	36.98199844	0	0	-1.416164279	3.811740637	-33.26115417	1.0
23	36.98199844	0	0	-1.418447018	3.814235449	-33.29465103	1.0
[LeftHandMiddle3]
21	29.50900078	0	0	-0.1451808065	1.469359994	-12.09658623	1.0
22	29.50900078	0	0	-0.1455215216	1.470872879	-12.11228561	1.0
23	29.50900078	0	0	-0.1462168992	1.473726392	-12.14188194	1.0
[LeftHandMiddle4]
21	28.3390007	0	0	0	0	0	1.0
22	28.3390007	0	0	0	0	0	1.0
23	28.3390007	0	0	0	0	0	1.0
[LeftHandRing1]
21	91.04499817	-0.4390000105	-18.65100098	-2.794844151	11.5204401	-25.20186996	1.0
22	91.04499817	-0.4390000105	-18.65100098	-2.826365232	11.53606033	-25.44132805	1.0
23	91.04499817	-0.4390000105	-18.65100098	-2.85863018	11.53992558	-25.69057846	1.0
[LeftHandRing2]
21	31.54000092	0	0	-1.185013056	4.039515018	-39.99650955	1.0
22	31.54000092	0	0	-1.187765121	4.043049812	-40.04170609	1.0
23	31.54000092	0	0	-1.193076253	4.049881935	-40.12914658	1.0
[LeftHandRing3]
21	29.37700081	0	0	-0.08749341965	1.88376081	-19.13511467	1.0
22	29.37700081	0	0	-0.08854869008	1.888126493	-19.18027306	1.0
23	29.37700081	0	0	-0.09058304876	1.896551132	-19.26732445	1.0
[LeftHandRing4]
21	26.47500038	0	0	0	0	0	1.0
22	26.47500038	0	0	0	0	0	1.0
23	26.47500038	0	0	0	0	0	1.0
[LeftHandPinky1]
21	80.77799988	-4.887000084	-38.06099701	-5.041095734	16.35620499	-35.31614685	1.0
22	80.77799988	-4.887000084	-38.06099701	-5.043562412	16.14905357	-35.55186081	1.0
23	80.77799988	-4.887000084	-38.06099701	-5.050216675	15.98907757	-35.76340866	1.0
[LeftHandPinky2]
21	36	0	0	-1.951124072	3.822321415	-45.73668289	1.0
22	36	0	0	-1.947493315	3.819149256	-45.68827438	1.0
23	36	0	0	-1.948328733	3.819897413	-45.69947052	1.0
[LeftHandPinky3]
21	21.14200211	0	0	-0.5465028882	2.840400696	-20.60060501	1.0
22	21.14200211	0	0	-0.5444233418	2.836039305	-20.55234146	1.0
23	21.14200211	0	0	-0.5449163318	2.837030649	-20.5635128	1.0
[LeftHandPinky4]
21	19.75699997	0	0	0	0	0	1.0
22	19.75699997	0	0	0	0	0	1.0
23	19.75699997	0	0	0	0	0	1.0
[RightShoulder]
21	-45.70000076	109.4620056	-26.28000069	4.884152412	1.368073702	7.068175316	1.0
22	-45.70000076	109.4620056	-26.28000069	4.890884399	1.490222335	7.161159515	1.0
23	-45.70000076	109.4620056	-26.28000069	4.884033203	1.730594397	6.981049061	1.0
[RightArm]
21	-105.9280014	-5.248000145	-22.32099915	-0.6472142935	1.94161582	64.23288727	1.0
22	-105.9280014	-5.248000145	-22.32099915	0.1164776236	2.186675549	65.0291748	1.0
23	-105.9280014	-5.248000145	-22.32099915	0.7484757304	2.494881153	65.62213898	1.0
[RightForeArm]
21	-278.414978	0	0	-3.991137419e-06	20.06033325	-6.491462045e-06	1.0
22	-278.414978	0	0	5.999296718e-06	19.69184113	-2.030845053e-06	1.0
23	-278.414978	0	0	-3.237449391e-06	19.41358948	-6.819589089e-07	1.0
[RightHand]
21	-283.2879944	0	0.0009999999311	-14.43871689	-2.8360641	8.191455841	1.0
22	-283.2879944	0	0.0009999999311	-14.40892029	-4.224339962	10.44478703	1.0
23	-283.2879944	0	0.0009999999311	-13.91751385	-5.047779083	11.79856682	1.0
[RightHandPinky1]
21	-80.76699829	-4.885000229	-38.06000137	-5.173956871	-16.22868538	36.50566864	1.0
22	-80.76699829	-4.885000229	-38.06000137	-5.177540302	-16.17668915	36.55949783	1.0
23	-80.76699829	-4.885000229	-38.06000137	-5.204038143	-16.09005737	36.79834366	1.0
[RightHandPinky2]
21	-36	0	0.0009999999311	-1.939799428	-3.811965466	45.6043396	1.0
22	-36	0	0.0009999999311	-1.936440349	-3.808991432	45.55948257	1.0
23	-36	0	0.0009999999311	-1.936211228	-3.808796883	45.55653381	1.0
[RightHandPinky3]
21	-21.14200211	0	0	-0.7627675533	0.06001963466	22.06546974	1.0
22	-21.14200211	0	0	-0.7607392073	0.06400353462	22.02084541	1.0
23	-21.14200211	0	0	-0.7606113553	0.06426786631	22.01790619	1.0
[RightHandPinky4]
21	-19.75699997	0	0	0	0	0	1.0
22	-19.75699997	0	0	0	0	0	1.0
23	-19.75699997	0	0	0	0	0	1.0
[RightHandRing1]
21	-91.03599548	-0.4390000105	-18.65100098	-2.947016239	-11.60947132	26.3493042	1.0
22	-91.03599548	-0.4390000105	-18.65100098	-2.955465078	-11.59245872	26.42068863	1.0
23	-91.03599548	-0.4390000105	-18.65100098	-2.996249676	-11.54902458	26.75119972	1.0
[RightHandRing2]
21	-31.54000092	0	0	-1.18890357	-4.044272423	40.06381607	1.0
22	-31.54000092	0	0	-1.184433222	-4.038534641	39.99004745	1.0
23	-31.54000092	0	0	-1.184707403	-4.038877487	39.99456406	1.0
[RightHandRing3]
21	-29.37700081	0	0	-0.1355063915	0.1031392515	17.68088722	1.0
22	-29.37700081	0	0	-0.13396658	0.1103709564	17.60677719	1.0
23	-29.37700081	0	0	-0.1340176761	0.1101283506	17.60932541	1.0
[RightHandRing4]
21	-26.47500038	0	0	0	0	0	1.0
22	-26.47500038	0	0	0	0	0	1.0
23	-26.47500038	0	0	0	0	0	1.0
[RightHandMiddle1]
21	-95.32500458	0	0	-1.452188373	-8.622943878	15.30305958	1.0
22	-95.32500458	0	0	-1.465010047	-8.608465195	15.41181469	1.0
23	-95.32500458	0	0	-1.503668547	-8.643681526	15.73301125	1.0
[RightHandMiddle2]
21	-36.98199844	0	0	-1.412206888	-3.807152271	33.20537186	1.0
22	-36.98199844	0	0	-1.408665657	-3.803283215	33.15346909	1.0
23	-36.98199844	0	0	-1.41245091	-3.807397127	33.20896149	1.0
[RightHandMiddle3]
21	-29.50900078	0	0	-0.2473264486	-1.658054948	15.68733883	1.0
22	-29.50900078	0	0	-0.2458213717	-1.653071761	15.63499069	1.0
23	-29.50900078	0	0	-0.2474171817	-1.658382297	15.69058704	1.0
[RightHandMiddle4]
21	-28.3390007	0	0.0009999999311	0	0	0	1.0
22	-28.3390007	0	0.0009999999311	0	0	0	1.0
23	-28.3390007	0	0.0009999999311	0	0	0	1.0
[RightHandIndex1]
21	-91.08300018	-5.167999744	22.60099792	-0.2287321687	-4.548587799	7.079495907	1.0
22	-91.08300018	-5.167999744	22.60099792	-0.2447156012	-4.553767204	7.214396954	1.0
23	-91.08300018	-5.167999744	22.60099792	-0.2845333219	-4.613100052	7.622524738	1.0
[RightHandIndex2]
21	-36.76399994	0	0	-0.6225624681	-2.759737968	20.45664024	1.0
22	-36.76399994	0	0	-0.6203665137	-2.75563097	20.41078758	1.0
23	-36.76399994	0	0	-0.6214625239	-2.757710457	20.43371582	1.0
[RightHandIndex3]
21	-28.83100128	0	0	-0.2357295454	-0.1461275965	13.72843742	1.0
22	-28.83100128	0	0	-0.2346298397	-0.1416607499	13.68267727	1.0
23	-28.83100128	0	0	-0.2351702452	-0.1438803077	13.70553875	1.0
[RightHandIndex4]
21	-23.92700005	0	0	0	0	0	1.0
22	-23.92700005	0	0	0	0	0	1.0
23	-23.92700005	0	0	0	0	0	1.0
[RightHandThumb1]
21	-24.64799881	-15.72700024	26.82600021	18.72582626	4.13993454	-9.500464439	1.0
22	-24.64799881	-15.72700024	26.82600021	18.74134636	4.277209282	-9.393464088	1.0
23	-24.64799881	-15.72700024	26.82600021	18.45277786	4.446717739	-9.529150963	1.0
[RightHandThumb2]
21	-32.29800034	-18.64699936	18.64699936	-0.997398138	-32.28167725	2.672156334	1.0
22	-32.29800034	-18.64699936	18.64699936	-1.056744695	-32.32545853	2.681549549	1.0
23	-32.29800034	-18.64699936	18.64699936	-1.001024365	-32.60284042	2.811384201	1.0
[RightHandThumb3]
21	-26.52600098	-15.31399918	15.31399918	1.849733949	-8.409298897	0.8151307702	1.0
22	-26.52600098	-15.31399918	15.31399918	1.842868805	-8.386551857	0.8090475798	1.0
23	-26.52600098	-15.31399918	15.31399918	1.842619419	-8.385826111	0.8088847995	1.0
[RightHandThumb4]
21	-19.54599953	-11.28499985	11.28499985	0	0	0	1.0
22	-19.54599953	-11.28499985	11.28499985	0	0	0	1.0
23	-19.54599953	-11.28499985	11.28499985	0	0	0	1.0
[LeftUpLeg]
21	82.07800293	-67.51699829	-15.99599934	-15.22560596	34.15315247	4.722591877	1.0
22	82.07800293	-67.51699829	-15.99599934	-14.6839962	28.00968742	5.604640007	1.0
23	82.07800293	-67.51699829	-15.99599934	-14.3751955	22.32287788	6.677994728	1.0
[LeftLeg]
21	0	-443.7049866	2.845999956	27.627491	-1.148695707	2.223567486	1.0
22	0	-443.7049866	2.845999956	27.58624458	1.62306869	3.509417534	1.0
23	0	-443.7049866	2.845999956	27.6116333	5.360538006	5.37820673	1.0
[LeftFoot]
21	0	-444.2789917	-29.8219986	-12.68219566	19.19072914	-5.79848671	1.0
22	0	-444.2789917	-29.8219986	-12.49826145	18.83579063	-6.997844696	1.0
23	0	-444.2789917	-29.8219986	-11.7731657	16.89961624	-8.21925354	1.0
[LeftToeBase]
21	0	-87.28699493	107.1060028	-0.4328454137	-3.367374302e-05	1.367153999e-07	1.0
22	0	-87.28699493	107.1060028	-0.432844609	-1.485520102e-06	1.250808168e-06	1.0
23	0	-87.28699493	107.1060028	-0.4328408837	-1.485520102e-06	1.830009637e-06	1.0
[RightUpLeg]
21	-82.07800293	-67.51699829	-15.99599934	-11.19853592	-7.047547817	3.828542709	1.0
22	-82.07800293	-67.51699829	-15.99599934	-9.945756912	-4.508434296	4.890785217	1.0
23	-82.07800293	-67.51699829	-15.99599934	-8.190587997	-2.758720398	5.701942921	1.0
[RightLeg]
21	0	-443.7049866	2.861999989	22.75723457	-10.62550259	-0.3310406804	1.0
22	0	-443.7049866	2.861999989	22.63859177	-9.567168236	-1.85987246	1.0
23	0	-443.7049866	2.861999989	21.37810707	-6.232627392	-0.608494997	1.0
[RightFoot]
21	0	-444.2770081	-29.83799934	-8.453802109	-21.86654854	3.019526482	1.0
22	0	-444.2770081	-29.83799934	-9.313213348	-17.64143372	3.945489883	1.0
23	0	-444.2770081	-29.83799934	-10.41614532	-15.67587185	2.644159079	1.0
[RightToeBase]
21	0	-87.28699493	107.1060028	-8.558408737	-6.151974048e-06	-1.649166848e-06	1.0
22	0	-87.28699493	107.1060028	-9.014521599	-8.025326679e-07	-2.370459015e-06	1.0
23	0	-87.28699493	107.1060028	-8.535935402	-7.656894013e-06	2.781212515e-06	1.0
[EndOfFile]
